<?xml version="1.0" encoding="UTF-8"?>
<svg id="Layer_1" data-name="Layer 1" xmlns="http://www.w3.org/2000/svg" viewBox="0 0 500 500">
  <defs>
    <style>
      .cls-1 {
        fill: #fff;
      }
    </style>
  </defs>
  <path class="cls-1" d="m50.08,244.95c.66-2.05.33-4.18.58-6.28,1.07-9.14,2.61-18.17,5.38-26.97,1.75-5.56,3.87-10.97,6.42-16.21.17-.36.36-.71.55-1.06.13-.25.3-.56.61-.5.48.1.37.53.28.84-.44,1.59-.86,3.19-1.37,4.76-2.94,8.96-5.43,18.02-6.74,27.39-.79,5.65-1.31,11.32-1.63,17.02-.94,16.61,1.13,32.91,5,49.01,2.62,10.89,6.38,21.42,11.04,31.63,5.11,11.2,11.25,21.79,18.44,31.78,4.24,5.88,8.86,11.44,13.73,16.82,5.49,6.07,11.44,11.63,17.75,16.81,13.01,10.68,27.27,19.25,42.89,25.6,13.28,5.4,27,9.16,41.14,11.39,8,1.26,16.04,2.05,24.16,2.39,6.92.29,13.81.16,20.68-.25,10.77-.64,21.42-2.31,31.94-4.82,11.93-2.84,23.4-6.96,34.41-12.32,5.17-2.51,10.21-5.31,14.76-8.92-1.16.63-2.32,1.24-3.47,1.88-15.93,8.83-32.97,14.43-50.86,17.63-13.25,2.37-26.6,3.41-40.03,2.92-11.69-.43-23.3-1.77-34.76-4.27-11.35-2.47-22.41-5.83-33.1-10.37-8.73-3.71-17.07-8.15-25.05-13.3-8.13-5.25-15.64-11.23-22.82-17.69-8.74-7.87-16.29-16.78-23.06-26.33-10.67-15.05-18.62-31.49-24.01-49.16-3.17-10.39-5.44-20.97-6.64-31.76-.53-4.75-.86-9.53-.96-14.33-.1-4.68-.18-9.34.09-14.02.62-10.85,2.16-21.54,4.71-32.11,3.19-13.23,8.03-25.81,14.28-37.85,4.82-9.29,10.47-18.06,16.96-26.28.5-.63.59-.67,1.62-1.14.31.78-.24,1.3-.58,1.85-5.19,8.54-9.89,17.35-13.68,26.6-3.51,8.56-6.28,17.38-8.39,26.4-2.37,10.14-3.66,20.4-4.26,30.8-.69,12.03.08,23.95,1.94,35.81,1.45,9.26,3.76,18.32,6.77,27.2,4.31,12.77,10.1,24.84,17.49,36.1,4.92,7.49,10.45,14.51,16.59,21.08,6.29,6.74,13.18,12.78,20.53,18.3,3.96,2.98,8.04,5.82,12.38,8.25.73.41,1.41.94,2.45.91-9.92-8.02-17.95-17.64-24.17-28.7-6.16-10.95-10.73-22.49-12.02-35.12,1.81,1.82,2.49,4.2,3.47,6.4,4.27,9.65,9.65,18.62,16.28,26.84,10.9,13.53,24.14,24.17,39.48,32.24,11.8,6.2,24.27,10.49,37.32,13.14,7.39,1.5,14.85,2.32,22.38,2.77,14.98.88,29.74-.49,44.29-4.07,7.49-1.84,14.66-4.66,21.66-7.92,10.13-4.71,19.61-10.48,28.59-17.08,5.75-4.22,11.19-8.83,16.41-13.7,8.44-7.89,15.97-16.57,22.65-25.99,1.72-2.43,2.67-2.42,4.68-.25,1.7,1.83,2.94,4.06,5.16,5.7.11-1.41-.37-2.55-.71-3.69-.82-2.73-1.77-5.42-2.57-8.16-.65-2.24-.37-2.65,1.76-3.46,3.72-1.41,7.44-2.84,11.53-4.41-1.92-.7-3.5-.49-5.04-.5-5.17-.04-5.7-.69-3.62-5.4,3.93-8.94,6.83-18.15,7.96-27.87.35-3,.66-6.01.76-9.03.2-6.04.7-12.1.33-18.13-.29-4.72.13-9.48-.76-14.66-.66,2.47-.63,4.58-.71,6.63-.3,7.98-.75,15.95-1.78,23.87-1.34,10.28-3.47,20.36-7.9,29.82-.23.49-.37,1.06-1.04,1.5-.24-2.91.29-5.66.41-8.42.27-5.8.76-11.6,1.19-17.39.5-6.72.65-13.47.37-20.19-.5-11.7-2.19-23.26-4.74-34.7-1.58-7.08-3.7-14.01-5.83-20.94-.28-.92-.66-1.81-1.3-2.63.72,3.36,1.46,6.71,2.15,10.07,2.01,9.73,3.39,19.55,4.04,29.47.5,7.63.82,15.26.59,22.91-.48,15.63-2.42,31.04-7.12,46.01-.44,1.41-.93,2.81-1.42,4.21-.62,1.78-1.83,2.43-3.72,2.18-2.45-.31-4.77-1.17-7.19-1.55-.54-.08-1.08-.39-1.75.02,1.02,1.28,2.44,2.03,3.65,3.01.79.65,1.67,1.19,2.5,1.8,3.01,2.23,3.19,3.1,1.58,6.44-6.79,14.08-15.8,26.55-27.26,37.18-8.23,7.63-17.33,14.08-27.12,19.58-10.29,5.78-21.06,10.42-32.22,14.18-2.86.97-5.77,1.8-8.68,2.65-.62.18-1.52.55-1.88-.13-.37-.7.56-.96,1.01-1.34,7.9-6.83,15.68-13.77,21.97-22.21,7.3-9.8,13.21-20.33,17.56-31.78,3.92-10.31,6.51-20.93,7.57-31.87,1.32-13.55-.09-26.86-4.39-39.84-5.05-15.26-12.2-29.5-20.51-43.2-6.82-11.24-14.54-21.84-23.03-31.87-4.39-5.19-9.17-10.01-14.03-14.75-.44-.43-.95-.78-1.42-1.17-.13.09-.25.18-.38.27,1.01,1.85,2.03,3.69,3.02,5.55,5.93,11.02,11.53,22.18,14.46,34.46,1.35,5.65,1.35,11.04-1.31,16.48-2.78,5.68-4.83,11.7-7.38,17.49-2.76,6.26-5.78,12.38-9.83,17.98-4.07,5.61-9.26,8.64-16.26,8.98-11.21.54-21.94-1.16-32.18-5.83-6.44-2.94-12.06-7.15-17.6-11.47-1.23-.96-2.48-1.38-3.95-1.21-2.44.27-4.86.61-7.29.93-2.3.31-2.71-.15-2.02-2.4,1.22-3.99,2.94-7.81,4.73-11.55,5.37-11.21,10.95-22.28,17.85-32.71,6.53-9.87,14.49-18.35,23.04-26.34,8.13-7.6,16.91-14.43,25.83-21.09,1.32-.98,2.37-1.15,3.85-.35,2.4,1.3,4.79,2.64,7.55,3.3-1.77-1.33-3.59-2.6-5.31-3.99-2.84-2.31-4.95-5.22-6.34-8.58-1.06-2.56-.38-3.55,2.38-3.44,8.23.33,16.16,2.07,23.7,5.42.98.43,1.84,1.13,2.71,1.77,2.56,1.88,2.77,3,1.07,5.75-1.19,1.92-2.4,3.83-3.83,6.1,2.02-.49,3.14-1.67,4.46-2.46,1.17-.7,2.29-1.51,3.35-2.37,1.08-.86,1.91-.9,2.86.25,2.05,2.48,4.31,4.79,6.48,7.31-.34-1.3-.66-2.6-1.02-3.9-.46-1.65-1-3.28-1.4-4.94-.5-2.08.44-2.99,2.49-2.32,1.67.55,3.28,1.31,4.87,2.07,5.88,2.81,11.33,6.36,16.88,9.75,3.7,2.26,7.18,4.83,10.85,7.22-3.99-8.73-10.23-15.96-16.19-23.81,1.62-.05,2.37.74,3.17,1.25,8.55,5.5,16.12,12.12,22.66,19.92,1.28,1.53,2.61,3.01,3.95,4.5.66.73.85,1.56.81,2.52-.1,2.39-.16,4.79-.28,7.18-.08,1.57-.7,2.1-2.1,2.23-3.58.33-7.15.71-10.72,1.06-1.02.1-2.02.24-3.11.8,1.05.95,2.27,1.19,3.4,1.53,3.22.97,6.5,1.77,9.65,2.98,2.45.94,2.62,1.28,2.08,3.83-.81,3.85-1.65,7.69-2.44,11.55-.08.4-.46.98.09,1.23.51.23.78-.35,1.03-.7,1.16-1.62,2.28-3.27,3.43-4.9,1.67-2.36,2.71-2.4,4.44-.13,2.34,3.06,2.24,2.24-.36,4.79-.96.94-2.02,1.79-3.04,2.68.13.16.27.33.4.49,1.61-.5,3.23-1,4.84-1.51,1.38-.44,2.34-.1,2.78,1.38.29.98.59,1.97.97,2.92.19.49.29,1.3,1.02,1.15.6-.12.45-.85.46-1.34.02-.97,0-1.94,0-2.91,0-.69.13-1.36.42-2,.53-1.16,1.45-1.51,2.25-.5,2.05,2.59,3.01,5.64,2.69,8.93-.15,1.54-1.7,2.38-3.54,2.26-.89-.06-1.77-.28-3.05-.48.95.84,1.62,1.43,2.28,2.03.5.47.97.96,1.24,1.62.3.73.17,1.36-.42,1.85-.62.52-1.19.19-1.7-.22-1.44-1.15-2.46-2.69-3.6-4.11-.57-.71-1.12-1.44-1.99-1.99-.52.65-.24,1.3-.08,1.91.83,3.2,1.66,6.4,2.51,9.6.71,2.67.24,3.61-2.41,4.52-3.02,1.03-6.07,2-9.09,3.03-.68.23-1.44.36-1.97,1.18,1.12.41,2.22.53,3.34.58,3.02.13,6.04.29,9.06.41,1.56.06,2.49.49,2.52,2.38.07,4.21.38,8.42.6,12.64.04.71-.13,1.45.29,2.37,1.39-3.51,2.68-6.84,4.02-10.15.47-1.16,1.01-2.3,1.58-3.42.42-.83.96-1.64,2.09-1.41,1.03.21,1.2,1.07,1.35,1.95.29,1.77,0,3.54-.17,5.28-1.19,11.25-3.02,22.38-6.79,33.11-3.63,10.35-8.66,19.98-15.01,28.92-.18.26-.35.52-.43.85,1.61-1.21,2.79-2.8,4.04-4.32,10.03-12.21,16.55-26.18,20.49-41.38,2.41-9.29,3.68-18.75,3.97-28.38.32-10.66-.58-21.18-2.85-31.57-2.97-13.57-8.14-26.22-16.07-37.7-2.9-4.19-6.27-7.97-9.69-11.72-.74-.82-2.22-1.9-1.56-2.74.79-1.01,1.98.37,2.9.91,11.5,6.72,19.75,16.37,25.43,28.32,1.04,2.19,2.04,4.4,3.44,6.52-.21-1.88-.28-3.8-.65-5.65-1.87-9.32-4.94-18.16-10.82-25.81-5.42-7.05-12.27-12.36-20.08-16.49-9.08-4.81-18.77-8-28.63-10.74-.38-.11-.75-.24-1.19-.38,4.86-1.84,24.37,2.56,34.86,7.77,11.02,5.48,20.57,12.81,28.46,22.32,7.83,9.44,13.22,20.14,16.79,31.86.24-3.49-.47-6.79-1.03-10.11-1.92-11.33-6.53-21.46-13.86-30.31-5.47-6.6-11.97-12.01-19.22-16.58-8.48-5.35-17.64-9.08-27.25-11.74-8.87-2.45-17.91-3.99-27.12-4.53-5.48-.32-10.95-.42-16.43-.24-7.53.25-15.04.79-22.42,2.39-1.63.35-1.64.34-2.74,1.2,4.33,1.75,8.76,2.87,13.08,4.3-.02.14-.04.29-.06.43-1.27.16-2.53.38-3.8.46-5.35.33-10.42,1.89-15.51,3.38-2.03.59-4.04,1.22-6.03,1.92-1.04.37-1.76.13-2.37-.72-2.68-3.71-6.01-6.86-8.99-10.32-1.52-1.76-1.49-2.05.6-3.05,6.24-3,12.81-5.1,19.35-7.31,8.07-2.73,16.34-4.04,24.86-4.19,7.98-.14,15.95-.56,23.92-.95,9.57-.46,18.71-2.7,27.3-7.01,2.81-1.41,5.61-2.81,8.43-4.2.51-.25,1.06-.42,1.6-.6.33-.11.72-.17.94.16.23.35-.07.65-.29.9-.9,1.03-1.77,2.09-2.74,3.06-3.74,3.76-7.44,7.56-10.97,11.52-1.18,1.33-.52,1.66.7,1.96,3.11.76,6.3,1.04,9.47,1.31,10.33.87,20.65.93,30.83-1.33,8.55-1.9,16.46-5.37,23.82-10.12,2.37-1.53,4.58-3.35,7.38-4.6.08,1.16-.52,1.77-1.04,2.4-3.4,4.15-7.65,7.32-12,10.37-4.35,3.05-8.95,5.67-13.79,7.9-2.15.99-4.41,1.54-6.68,2.1-.53.13-1.38.2-1.38.8,0,.88.97.84,1.58.98,6.28,1.48,12.64,2.52,19.06,3.22,6.25.68,12.52.91,18.8.66,10.76-.42,21.21-2.33,30.95-7.12,3.78-1.86,7.41-4.05,10.61-6.86.82-.72,1.76-1.2,2.86-1.78.13,1.18-.57,1.77-1.09,2.36-10.29,11.89-23.09,19.86-38.12,24.31-3.91,1.16-8,1.11-12.02,1.54-.91.1-1.81.23-2.71.36-.39.05-.92.02-1.04.45-.16.56.44.73.79.96,4.09,2.72,8.13,5.49,12.04,8.47,11.39,8.7,21.18,18.88,28.97,30.95,8.6,13.32,14.3,27.85,18.23,43.16,1.57,6.12,3.13,12.27,5.59,18.14.92,2.19,2.35,4.03,3.48,6.07-.73.05-1.31-.32-1.91-.64-3.28-1.73-5.93-4.24-8.49-6.85-.94-.96-1.73-2.07-2.72-3.27-.76,1.29-.55,2.03-.44,2.73,1.54,10.3,2.05,20.64,1.28,31.04-.68,9.26-2.48,18.3-5.2,27.17-5.78,18.87-15.16,35.88-26.72,51.76-8.24,11.31-17.47,21.77-27.3,31.71-6.9,6.98-14.18,13.55-21.5,20.07-.62.55-1.28,1.09-2.2,1.31,0-.88.57-1.32.99-1.81,2.78-3.25,5.52-6.53,8.39-9.69,9.86-10.84,18.52-22.56,26.13-35.07,6.99-11.49,12.78-23.55,17.12-36.29,3.88-11.38,6.56-23.02,7.67-35.01.74-8.03.85-16.06.14-24.09-.12-1.3-.04-2.68-.82-3.9-.34,1.68-.63,3.35-.69,5.04-.51,12.77-2.61,25.3-6.02,37.59-4.11,14.81-10.21,28.81-18.2,41.94-8.44,13.85-18.6,26.32-30.6,37.28-6.41,5.86-13.17,11.26-20.36,16.12-13.5,9.12-28,16.25-43.43,21.46-8.93,3.02-18.01,5.39-27.32,7.02-6.64,1.16-13.29,2.02-20,2.64-2.38.22-4.79-.02-7.14.56h-13.7c-3.15-.61-6.35-.31-9.53-.57-8.93-.74-17.79-1.97-26.53-3.91-13.74-3.04-27.04-7.37-39.83-13.32-10.38-4.83-20.22-10.54-29.54-17.16-9.51-6.76-18.21-14.44-26.17-22.97-7.41-7.95-14.01-16.52-19.8-25.69-5.52-8.74-10.09-17.98-13.95-27.59-6.78-16.89-11.07-34.37-12.96-52.46-.29-2.77-.25-5.57-.86-8.3v-19.87Zm200.45-14.64c-.02-.11-.03-.22-.05-.33-.56,0-1.13,0-1.69,0-3.76-.04-7.53,0-11.29-.14-2.83-.1-3.25-.49-3.6-3.26-.4-3.16-.6-6.35-.92-9.52-.13-1.3-.15-2.64-.66-3.89-.55.21-.58.59-.69.9-1.35,3.93-2.74,7.85-4.03,11.8-.54,1.64-1.35,2.24-3.15,1.84-4.34-.96-8.69-1.85-12.93-3.19-.49-.15-1.19-.74-1.52-.05-.35.74.47.98,1.01,1.3,3.95,2.32,7.43,5.26,10.89,8.23,1.11.95,1.19,1.86.38,3.1-2.19,3.34-4.27,6.74-6.4,10.12-.44.69-.94,1.36-1.04,2.59,1.3-.87,2.34-1.55,3.36-2.26,3.09-2.14,6.02-4.5,9.29-6.39,1.1-.63,1.92-.68,2.77.44,1.39,1.8,2.92,3.5,4.38,5.25,1.63,1.95,3.26,3.9,4.94,5.92.33-.63.13-1.07.03-1.5-.83-3.85-2.07-7.59-3.21-11.35-.99-3.26-.95-3.49,2.26-4.79,3.95-1.61,7.91-3.22,11.86-4.82Zm-10.85-25.17c-.28-2.1-1.25-3.62-1.71-5.31-.67-2.45-.36-3.14,1.96-4.1,1.31-.55,2.64-1.07,3.95-1.63.29-.12.73-.26.63-.69-.09-.37-.5-.43-.84-.44-1.42-.04-2.85-.08-4.27-.08-3.04-.01-2.98-.01-3.41-3.03-.23-1.6-.18-3.33-1.44-4.89-.5,2.11-.54,4.1-1.56,5.81-.76,1.28-1.7,2.01-3.37,1.58-1.85-.47-3.77-.67-5.66-.99,1.43,1.31,2.97,2.36,4.46,3.47,1.61,1.2,1.92,2.43,1.03,4.15-.47.91-1.09,1.74-1.64,2.6-.44.69-.98,1.33-1.08,2.35.41-.14.65-.17.82-.29,1.34-.97,2.66-1.95,3.99-2.94,2.49-1.86,2.45-1.84,4.39.58,1.05,1.31,1.93,2.81,3.77,3.86Zm-34.14,35.84c-1.49-1.59-3.06-2.44-4.53-3.39-.97-.63-1.04-1.22-.64-2.27.57-1.49,1.8-2.73,1.89-4.77-1.45,1.11-2.74,1.94-3.84,2.98-1.14,1.09-1.91,1.01-2.94-.16-1.1-1.24-2.17-2.56-3.64-3.55-.37.86.02,1.42.22,1.99.34.97.75,1.91,1.12,2.86.53,1.36.31,2.3-1.18,3.02-1.2.58-2.61.88-3.77,2.01,1.94.15,3.63.36,5.34.38,1.42.02,1.9.6,1.85,1.98-.05,1.33-.14,2.7.66,4.18,1.1-1.46,1.37-3.05,1.96-4.48.47-1.13,1.08-1.68,2.48-1.43,1.53.28,3.05.85,5.02.64Zm22.06,13.95c-2.05,1.81-4.02,1.74-6.21-.53.47,2.62.81,4.6-1.62,5.78,2.12-.13,3.25.75,3.73,2.55.1.38.27.84.74.82.58-.03.69-.6.71-1.01.11-1.89,1.26-2.04,2.74-1.73.36.07.75.32,1.25-.28-2.41-1.29-2.7-3.17-1.34-5.6Zm-11.6-43.57c-1.44-1.27-1.24-2.59-1.17-3.9.02-.35.24-1.24-.51-.83-1.46.78-2.74.59-4.24-.48.63,2.19-.4,3.44-1.97,4.87,2.54-.21,3.79.82,3.82,3.6,1.07-1.89,1.66-3.44,4.06-3.25Z"/>
  <path class="cls-1" d="m259.05,69.9c2.63.54,5.32.4,7.98.63,7.39.62,14.83,1,22.05,2.67,8.1,1.87,16.05,4.36,23.82,7.38,7.12,2.78,14.18,5.69,21.06,9.02,1.66.8,3.41,1.56,4.88,3.12-1.03.4-1.8-.04-2.54-.3-7.83-2.83-15.71-5.48-23.77-7.61-10.88-2.88-21.92-4.91-33.08-6.28-9.52-1.17-19.09-1.64-28.66-1.62-16.34.05-32.56,1.67-48.55,5.14-13.45,2.92-26.58,6.94-39.23,12.43-1.01.44-2.11.68-3.62,1.15,1.36-1.96,3.1-2.54,4.6-3.34,11.25-5.98,22.89-11.09,35.11-14.77,9.35-2.82,18.88-4.83,28.59-6,3.5-.42,7.02-.77,10.46-1.6h20.9Z"/>
  <path class="cls-1" d="m58.31,69.9c5.22,2.82,10.17,6.06,15.23,9.15,2.33,1.42,4.72,2.75,6.71,4.68,1.44,1.4,1.7,3,1.15,4.86-.28.95-.75,1.19-1.62.67-2.05-1.24-3.96-2.69-5.79-4.22-4.14-3.48-8.27-6.99-12.27-10.63-1.43-1.3-3.18-2.44-3.76-4.5h.34Z"/>
  <path class="cls-1" d="m173.34,299.89c-1.69-.21-2.67.84-3.62,1.88-4.15,4.6-7.47,9.78-10.62,15.09-.52.88-1.17,1.72-1.55,2.66-1.05,2.57-2.99,3.15-5.52,2.86-4.14-.48-8.25-1.15-12.24-2.38-3.08-.95-4.69-3.54-6.21-6.08-1.55-2.6-2.62-5.41-3.42-8.36-1.16-4.3-3.8-7.88-6.22-11.54-.82-1.24-1.61-2.49-2.41-3.73-2.09-3.26-1.54-6.74-.09-9.85,2.73-5.81,7.17-10.22,12.72-13.48.9-.53,1.83-.75,2.93-.67,1.7.12,3.2-.78,4.68-1.47,6.93-3.23,13.82-6.54,20.73-9.8,1.75-.83,3.54-1.57,5.33-2.31.58-.24,1.24-.42,1.76.13.49.5.17,1.07.04,1.62-.52,2.16-1.91,3.75-3.52,5.14-2.33,2.02-4.71,3.96-7.08,5.94-.68.57-1.35,1.13-1.73,1.99,2.16-1.57,4.29-3.17,6.64-4.41,1.51-.79,3.1-1.45,4.66-2.13.74-.32,1.54-.41,2.35-.33.42.04.79.22.91.66.14.48-.19.72-.54.95-3.71,2.42-6.66,5.7-9.91,8.64-1.08.98-1.96,2.18-2.98,3.33.71.32.96-.18,1.29-.44,5.55-4.3,11.29-8.33,17.13-12.23,1.62-1.08,2.96-1.2,4.6.12,3.46,2.78,7.09,5.37,10.63,8.06,3.11,2.35,6.56,4.12,10.04,5.85,2.86,1.42,2.98,2.56.28,4.47-3.35,2.38-6.79,4.61-10.21,6.89-1.98,1.32-3.95,2.64-5.57,4.47,2.48-1.45,4.98-2.86,7.43-4.34,4.39-2.66,8.77-5.33,13.13-8.05.96-.6,1.92-.63,2.95-.41,6.15,1.34,12.36,1.03,18.57.64.23-.01.46-.05.68-.04.39.02.9-.11,1.07.34.19.49-.36.65-.65.86-1.36.94-2.72,1.88-4.12,2.76-9.99,6.29-19.87,12.75-30.18,18.5-3.24,1.81-6.56,3.45-9.85,5.16-.54.28-1.17.71-1.75.21-.59-.51-.21-1.2,0-1.75.49-1.24,1.07-2.45,1.49-3.74-1.81,1.44-2.72,3.44-3.52,5.5-1.23,3.15-1.6,6.54-2.62,9.75-.43,1.36-.89,2.71-1.36,4.05-.29.85-.86,1.26-1.81,1.23-5.02-.16-10.01-.66-15.01-1.12-1.39-.13-1.67-.89-1.18-2.15,1.52-3.92,3.89-7.35,6.16-10.83.5-.76,1.02-1.52,1.59-2.23,1.7-2.12,3.06-4.56,5.67-5.87Zm-39.01-13.12c0-1.48.02-2.95,0-4.43-.01-.76-.33-1.29-1.19-1.39-1.41-.17-2.82-.37-4.22-.6-.85-.14-1.23.17-1.03,1.01,1.02,4.25.49,8.62,1.08,12.91.14,1.01.39,2.01.69,2.99.2.67.64,1.25,1.39,1.36.85.12,1.16-.61,1.5-1.17.23-.38.37-.83.53-1.25,1.14-3.04,1.28-6.22,1.25-9.41Zm6.35,1.34c-1.05,2.3-1.68,4.77-2.77,7.07-1.11,2.33-2.83,4.36-3.43,6.94,3.16-4.19,5.83-8.6,6.2-14.02Z"/>
  <path class="cls-1" d="m186.78,196.66c-2.67-1.44-5.51-2.46-8.42-3.27-1.08-.3-1.69.11-1.97,1.26-.34,1.43.02,2.98-.74,4.35-.79-.14-.75-.81-.85-1.32-.46-2.2-.41-4.43-.33-6.65.04-1.2.65-2.13,1.82-2.44,4.99-1.3,8.97-4.43,13.1-7.24,3.57-2.43,7.12-4.92,10.23-8.08-.42.17-.87.29-1.27.51-3.84,2.14-7.77,4.09-11.42,6.56-2,1.35-3.51,1.4-5.31-.17-2.23-1.95-4.25-4.13-6.38-6.2-.64-.62-.33-1.23-.06-1.88,1.52-3.63,3.35-7.12,4.6-10.87,1.43-4.31,2.41-8.67,2.46-13.23.02-2.05.75-2.5,2.57-1.46,3.76,2.15,7.44,4.43,11.16,6.66.34.21.68.42,1.04.59,2.72,1.33,3.41,1.11,4.93-1.53.2-.35.39-.7.57-1.05.69-1.29,1.68-1.56,2.81-.66,1.55,1.25,3.04,2.58,4.52,3.92,2.15,1.95,4.32,3.86,6.84,5.4.41-.66-.06-.97-.33-1.25-1.86-1.93-3.62-3.97-5.66-5.7-5.39-4.58-7.88-10.6-9.14-17.34-1.3-6.92-1.86-13.92-1.9-20.92-.03-3.74-.34-7.54.46-11.27.2-.92.19-2.27,1.31-2.36,1.15-.09,1.39,1.3,1.59,2.14,2.13,8.88,8.03,15.52,13.35,22.48,7.69,10.06,15.48,20.06,21.73,31.12,1.1,1.94,1.97,3.98,2.56,6.15.41,1.49-.03,2.51-1.26,3.38-7.09,5-14.14,10.04-21.23,15.04-5.55,3.92-11.23,7.64-17.05,11.13-2.45,1.47-5.02,2.68-7.86,3.28-1.1.23-2.42.18-3.07,1.53-.18.37-.74.08-1.11-.02-.77-.21-1.54-.42-2.31-.63l.02.02Z"/>
  <path class="cls-1" d="m295.92,297.64c-1.52,5.76-4.28,10.8-6.99,15.87-.91,1.71-1.87,3.4-3.1,4.91-.27.33-.56.89-1.09.6-.49-.27-.26-.82-.12-1.24,1.03-3.08,2.33-6.06,3.28-9.18,4.12-13.52,3.34-26.66-2.71-39.49-3.56-7.55-8.6-14.1-13.6-20.69-1.81-2.39-4.08-3.36-7.02-2.62-.33.08-.67.13-1.01.15-1.68.14-1.88-.12-1.11-1.66,2.8-5.62,5.59-11.25,8.45-16.84.64-1.25.77-2.36.35-3.74-2.46-8.02-4.99-16.01-8.69-23.58-1.8-3.69-3.61-7.37-5.41-11.06-.14-.29-.41-.57-.06-1.11,1.57.81,2.43,2.34,3.47,3.6,9.41,11.48,18.24,23.38,25.8,36.19,6.57,11.13,12.31,22.66,16.29,35,3.83,11.88,6.09,24,5.37,36.53-.54,9.54-2.65,18.74-6.77,27.42-1.27,2.68-2.62,5.32-4.02,7.93-.43.81-.98,2.22-1.87,1.91-.89-.32-.36-1.72-.22-2.64.61-4,1.71-7.92,2.03-11.97.58-7.4.97-14.8-.1-22.19-.11-.74-.2-1.48-1.14-2.11Z"/>
  <path class="cls-1" d="m203.86,352.77c2.23-.78,4.5-1.17,6.76-1.65,6.98-1.46,13.94-2.96,20.93-4.38,1.28-.26,1.49-.99,1.48-2.07-.06-3.89-.74-7.71-1.27-11.55-.67-4.86-1.43-9.7-2.11-14.56-.08-.57-.42-1.42.33-1.67.68-.23,1.04.56,1.36,1.07,3.92,6.23,7.3,12.77,10.86,19.21.08.15.14.31.21.47,1.91,3.75,3.23,4.33,7.1,2.79,4.88-1.94,9.39-4.68,14.16-6.86,2.23-1.02,4.43-2.12,6.67-3.11.69-.31,1.41-.78,2.35-.44-.25.95-.88,1.62-1.48,2.26-4.37,4.66-8.77,9.29-13.15,13.94-1.13,1.2-2.27,2.41-3.34,3.66-1.41,1.63-1.46,2.69-.22,4.45,1.53,2.16,3.61,3.8,5.42,5.7,4.02,4.21,8.4,8.06,12.16,12.52.54.64,1.61,1.44,1.12,2.09-.59.78-1.51-.26-2.22-.58-6.94-3.2-13.86-6.45-20.78-9.67-.62-.29-1.25-.58-1.91-.74-1.6-.38-2.95-.2-4.05,1.33-1.92,2.66-3.21,5.65-4.74,8.51-2.53,4.72-5.06,9.45-7.6,14.17-.16.3-.38.57-.58.85-.17.23-.37.47-.7.37-.34-.1-.37-.44-.35-.71.1-1.25.19-2.5.38-3.74,1.11-7.44,1.96-14.91,2.64-22.4.26-2.84-.02-3.34-3.08-3.89-5.95-1.08-11.91-2.09-17.86-3.15-2.25-.4-4.49-.81-6.73-1.27-.57-.12-1.28-.06-1.74-.93Z"/>
  <path class="cls-1" d="m138.35,265.15c-1.45.02-1.28-.83-.99-1.63.89-2.48,2.09-4.82,3.47-7.05,3.36-5.43,6.77-10.84,11-15.66,1.99-2.27,4.2-4.33,6.04-6.75,2.12-2.79,3.74-5.86,5.38-8.93,3.22-6.04,6.32-12.15,9.47-18.23.55-1.07,1.22-2.06,2-2.98,1.31-1.53,2.45-1.46,3.5.28.65,1.07,1.17,2.22,1.81,3.3.98,1.63,1.58,1.82,3.18.84,3.56-2.18,6.59-5.08,9.89-7.61,3.49-2.66,6.77-5.6,10.57-7.85.39-.23.78-.47,1.2-.66.4-.18.87-.54,1.24-.08.35.43-.04.87-.26,1.25-.83,1.45-1.98,2.66-3.1,3.86-7.6,8.16-14.6,16.79-20.28,26.42-3.98,6.76-7.35,13.8-9.66,21.31-.41,1.33-1.11,2.31-2.27,3.07-6.39,4.22-13.07,7.91-19.87,11.43-3.45,1.78-6.9,3.54-10.47,5.06-.63.27-1.3.43-1.85.61Z"/>
  <path class="cls-1" d="m180.98,149.19c-.83,7.83-3.53,15.53-8.6,22.35-.67.91-1.24.54-1.83.04-2.07-1.78-4.14-3.58-6.19-5.38-2.14-1.88-4.23-3.82-6.39-5.67-.82-.7-.82-1.32-.35-2.22,3.39-6.42,5.69-13.16,5.88-20.51.06-2.35.61-2.68,2.47-1.56,4.24,2.57,8.47,5.15,12.66,7.81,1.97,1.25,2.41,2.27,2.35,5.15Z"/>
  <path class="cls-1" d="m107.21,249.72c-.74-.69-.62-1.42-.65-2.08-.23-4.55-.49-9.11-.63-13.67-.04-1.38-.37-2.01-1.91-2.11-5.06-.32-10.11-.81-15.16-1.24-.28-.02-.55-.09-.97-.16.47-.75,1.16-.85,1.78-1.04,4.31-1.31,8.62-2.62,12.94-3.9,2.64-.78,2.87-1.17,2.26-3.92-.9-4.06-1.76-8.14-2.62-12.21-.11-.54-.36-1.24.28-1.55.7-.34.98.41,1.28.84,2.17,3,4.33,6.02,6.48,9.04,2.09,2.94,2.97,3.15,6.06,1.29,2.93-1.76,5.82-3.61,8.77-5.34.77-.45,1.76-1.6,2.5-.75.66.76-.44,1.75-1,2.5-2.49,3.41-5,6.8-7.58,10.14-.87,1.13-.89,1.79.3,2.76,3.14,2.55,6.32,5.06,9.22,7.9.29.28.6.54.85.84.31.39.82.82.56,1.34-.34.68-1.01.32-1.53.19-4.06-.99-7.91-2.6-11.84-3.98-1.72-.6-2.6-.29-3.3,1.37-1.81,4.31-3.73,8.57-5.61,12.85-.11.25-.26.48-.48.87Z"/>
  <path class="cls-1" d="m162.28,133.94c.12,6.82-2.16,13.4-5.39,19.7-1.12,2.17-1.75,2.32-3.64.81-3.7-2.96-7.15-6.18-10.46-9.57-1.12-1.15-1.23-2.26-.76-3.7,1.14-3.46,2.6-6.82,3.26-10.43.29-1.59.3-3.17.4-4.76.17-2.7,1.02-3.16,3.31-1.81,3.04,1.8,6.06,3.63,9.08,5.47,1.17.71,2.32,1.44,3.47,2.18.62.4.97.96.72,2.11Z"/>
  <path class="cls-1" d="m144.89,125.36c-.55,5.41-2.11,10.67-4.81,15.57-.68,1.24-1.6,1.41-2.79.5-3.8-2.9-7.5-5.93-10.84-9.37-.86-.89-.7-1.84-.41-2.86.91-3.29,2.23-6.47,2.6-9.9.12-1.13.11-2.27.23-3.4.14-1.34.93-1.88,2.13-1.22,4.44,2.45,8.75,5.11,12.87,8.08.83.6.91,1.53,1.02,2.6Z"/>
  <path class="cls-1" d="m128.23,114.84c-.68,3.35-1.67,7.09-3.07,10.7-.5,1.29-1.52,1.74-2.91,1.04-2.18-1.09-3.76-2.93-5.59-4.45-1.84-1.52-3.51-3.24-5.3-4.82-.85-.75-1.03-1.56-.68-2.58,1.09-3.18,1.92-6.43,2.57-9.73.32-1.62,1.17-1.95,2.63-1.13,3.72,2.09,7.29,4.44,10.77,6.91,1.2.86,1.64,2.14,1.58,4.06Z"/>
  <path class="cls-1" d="m210.33,113.81c.41-3.96.77-7.93,1.26-11.89.13-1.08.18-2.66,1.43-2.82.98-.12,1.35,1.37,1.8,2.25,1.08,2.08,1.93,4.24,2.5,6.53.37,1.51,1.42,2.71,2.33,3.94,2.66,3.56,5.83,6.7,8.35,10.37,1.35,1.98,1.27,2.94-.75,4.21-1.69,1.06-3.47,1.96-5.2,2.95-.69.39-1.12.2-1.58-.41-3.16-4.18-6.36-8.33-9.54-12.5-.6-.78-.61-1.69-.61-2.62Z"/>
  <path class="cls-1" d="m210.38,311.52c.14,2.41.28,4.83.43,7.24.05.79.09,1.6.23,2.38.3,1.63,1.32,2.48,2.97,2.53,1.48.05,2.97.1,4.44-.15,1.43-.24,2.85-.12,4.24.24.38.1.83.23.87.7.04.48-.39.68-.75.82-1.7.66-3.41,1.29-5.11,1.94-.59.22-1.17.45-1.74.72-2.72,1.27-3.01,2.06-2.12,4.93.84,2.7,1.58,5.44,2.2,8.28-1.38-.74-2.29-1.94-3.32-3-1.31-1.35-2.58-2.73-3.85-4.13-1.16-1.28-2.33-1.2-3.59-.16-1.63,1.34-3.23,2.71-5.06,3.78-.48.28-1.01.76-1.53.23-.44-.44,0-.97.17-1.42.77-1.98,1.9-3.76,3.09-5.5,1.58-2.31,1.57-2.47-.64-4.02-1.91-1.34-3.81-2.71-5.68-4.12-.41-.31-1.11-.65-.73-1.35.3-.56.91-.34,1.4-.24,2.63.52,5.27.97,7.88,1.59,1.32.31,1.86-.14,2.24-1.34.97-3.09,1.59-6.31,3.15-9.2.15-.28.12-.7.8-.75Z"/>
  <path class="cls-1" d="m119.68,191.17c1.97,0,3.47.73,5.04,1.06,1.28.27,2.55.61,3.83.88,1.67.35,2.75-.36,3.31-1.94.55-1.56,1.1-3.12,1.67-4.67.21-.58.43-1.31,1.21-1.22.74.09.67.84.72,1.38.22,2.09.47,4.19.58,6.29.06,1.15.51,1.54,1.64,1.67,2.93.33,5.91.12,9.29.91-1.57.64-2.73,1.13-3.9,1.59-1.06.42-2.15.77-3.2,1.2-2.03.84-2.41,1.57-1.92,3.72.4,1.72.9,3.42,1.34,5.13.14.54.41,1.22-.18,1.57-.64.37-1.04-.3-1.39-.7-1.04-1.21-1.97-2.52-3.02-3.72-1.55-1.77-2.65-1.94-4.62-.66-1.48.96-2.86,2.08-4.33,3.06-.52.35-1.15,1.1-1.78.51-.55-.52.08-1.16.4-1.67,1.17-1.82,2.32-3.67,3.6-5.41.75-1.01.65-1.71-.28-2.45-2.36-1.89-4.7-3.79-7.05-5.69-.25-.2-.49-.42-.97-.84Z"/>
  <path class="cls-1" d="m112.08,105.44c-.49,2.76-1.1,5.6-2.36,8.24-.5,1.06-1.37,1.24-2.44.76-1.48-.67-2.66-1.76-3.84-2.81-2.26-2-4.44-4.07-6.66-6.11-.58-.53-.9-1.14-.73-1.97.43-2.12.78-4.26,1.26-6.36.42-1.84,1.33-2.36,2.97-1.45,3.58,1.98,7.13,4.04,10.36,6.58.93.73,1.29,1.85,1.44,3.13Z"/>
  <path class="cls-1" d="m96.75,93.48c-.25,1.98-.63,3.93-1.25,5.83-.79,2.41-1.41,2.55-3.5,1.03-2.29-1.67-4.1-3.8-5.83-5.98-1.09-1.37-2.21-2.77-2.96-4.39-.34-.73-.67-1.46-.64-2.28.04-1.14,0-2.48,1.04-3.11.85-.51,1.66.5,2.41.94,3.2,1.87,6.34,3.83,9.54,5.7.92.54,1.3,1.23,1.19,2.25Z"/>
  <path class="cls-1" d="m243.54,304.54c1.91,1.18,3.51,2.22,5.15,3.19,2.06,1.21,2.52,1.1,4.02-.71.73-.87,1.49-1.72,2.25-2.57.34-.37.72-.9,1.27-.56.44.27.26.84.13,1.26-.44,1.35-.88,2.71-1.4,4.03-.5,1.26-.22,2,1.12,2.48,2.01.7,3.96,1.55,5.88,2.66-2.17.28-4.33.63-6.5.82-1.19.1-1.43.67-1.58,1.73-.31,2.12-.05,4.32-.81,6.64-1.08-1.36-1.14-2.87-1.61-4.21-1.21-3.4-1.56-3.61-4.94-2.52-.7.23-1.42.43-2.14.6-.53.13-1.23.48-1.55-.15-.36-.71.39-1.1.83-1.5.77-.68,1.57-1.31,2.37-1.96,1.54-1.24,1.7-1.94.69-3.63-1.03-1.74-2.35-3.31-3.19-5.6Z"/>
  <path class="cls-1" d="m186.75,196.64c.75.68,1.82.92,2.31,1.96.35.73.99.23,1.51.11,1.28-.3,2.4-1.25,4.01-1.06-.47.99-1.18,1.57-1.85,2.13-3.14,2.64-6.32,5.24-9.68,7.6-1.61,1.13-1.9,1.03-2.82-.76-1.02-1.99-1.69-4.11-2.23-6.27-.4-1.58.08-2.17,1.75-1.97,2.19.27,4.37.7,6.58.95-2.47-.95-5.04-1.61-7.37-2.87-.44-.24-1.11-.4-.9-1.03.21-.64.87-.37,1.35-.27,2.46.5,4.91,1.01,7.36,1.52,0,0-.02-.02-.02-.02Z"/>
  <path class="cls-1" d="m106.58,188.87c.03-3.77-1.87-5.49-5.66-5.2.63-1.28,1.67-1.25,2.41-1.61,1.87-.91,2.01-1.15,1.29-3.12-.1-.27-.19-.53-.28-.81-.11-.36-.48-.78-.1-1.1.47-.38.82.11,1.17.37.46.34.9.7,1.34,1.06,1.62,1.32,2.06,1.31,3.62-.12.36-.33.69-.96,1.25-.59.49.32.2.95.07,1.43-.1.38-.28.75-.47,1.09-.68,1.25-.46,2.28.71,3.12.37.26.7.59,1.03.9.24.23.64.44.49.82-.2.5-.68.24-1.05.23-.22,0-.44-.1-.67-.13-3.65-.51-3.66,0-4.14,2.45-.08.38-.21.77-1,1.23Z"/>
  <path class="cls-1" d="m279.63,341.27c.44,1.11.83,2.08,1.21,3.05.45,1.14,1.15,1.75,2.5,1.46.67-.15,1.66-.5,2.03.28.45.96-.65,1.32-1.21,1.79-1.03.86-1.51,1.79-.91,3.13.24.53.62,1.25-.05,1.71-.68.46-1.49.09-1.83-.43-1.28-1.92-2.34-1.09-3.54.05-.36.34-.87.99-1.44.51-.47-.39-.07-.99.18-1.4.95-1.55.72-2.75-.87-3.74-.47-.29-1.3-.67-1.05-1.36.21-.59,1.02-.28,1.56-.3,2.78-.08,2.91-.21,3.05-3.07.02-.48-.14-1.01.38-1.68Z"/>
  <path class="cls-1" d="m337.23,207.15c1.63.36,3.33,1.04,4.65,2.35.84.83.38,1.85-.2,2.65-.62.84-1.23,1.91-2.6,1.38-1.45-.56-2.71-1.44-3.8-2.53-.69-.69-.74-1.51-.29-2.35.44-.84.99-1.55,2.25-1.49Z"/>
  <path class="cls-1" d="m349.61,237.74c.05,1.44-.86,2.42-2.17,2.42-1.09,0-1.88-.45-1.99-1.64-.11-1.31,1.23-2.87,2.41-2.81,1.35.06,1.51,1.15,1.74,2.04Z"/>
</svg>